STARTFONT 2.3
FONT -FontForge-Permanent Marker-Book-R-Normal--11-110-72-72-P-63-ISO10646-1
SIZE 11 72 72  2
FONTBOUNDINGBOX 17 16 -3 -4
COMMENT "Generated by fontforge, http://fontforge.sourceforge.net"
COMMENT "Copyright (c) 2010 by Font Diner, Inc. All rights reserved."
STARTPROPERTIES 40
FOUNDRY "FontForge"
FAMILY_NAME "Permanent Marker"
WEIGHT_NAME "Book"
SLANT "R"
SETWIDTH_NAME "Normal"
ADD_STYLE_NAME ""
PIXEL_SIZE 11
POINT_SIZE 110
RESOLUTION_X 72
RESOLUTION_Y 72
SPACING "P"
AVERAGE_WIDTH 63
CHARSET_REGISTRY "ISO10646"
CHARSET_ENCODING "1"
FONTNAME_REGISTRY ""
CHARSET_COLLECTIONS "ISO10646-1"
BITS_PER_PIXEL 2
FONT_NAME "PermanentMarker-Regular"
FACE_NAME "Permanent Marker Regular"
COPYRIGHT "Copyright (c) 2010 by Font Diner, Inc. All rights reserved."
FONT_VERSION "1.001"
FONT_ASCENT 9
FONT_DESCENT 2
UNDERLINE_POSITION -1
UNDERLINE_THICKNESS 1
X_HEIGHT 6
CAP_HEIGHT 7
RAW_ASCENT 799
RAW_DESCENT 200
NORM_SPACE 4
RELATIVE_WEIGHT 40
RELATIVE_SETWIDTH 50
SUPERSCRIPT_X 0
SUPERSCRIPT_Y 5
SUPERSCRIPT_SIZE 6
SUBSCRIPT_X 0
SUBSCRIPT_Y 1
SUBSCRIPT_SIZE 6
AVG_LOWERCASE_WIDTH 61
AVG_UPPERCASE_WIDTH 75
ENDPROPERTIES
CHARS 230
STARTCHAR space
ENCODING 32
SWIDTH 370 0
DWIDTH 4 0
BBX 1 1 0 0
BITMAP
00
ENDCHAR
STARTCHAR exclam
ENCODING 33
SWIDTH 260 0
DWIDTH 3 0
BBX 3 8 0 0
BITMAP
18
2C
28
38
74
10
50
E0
ENDCHAR
STARTCHAR quotedbl
ENCODING 34
SWIDTH 492 0
DWIDTH 5 0
BBX 5 5 1 3
BITMAP
7780
B780
E740
EB00
DA00
ENDCHAR
STARTCHAR numbersign
ENCODING 35
SWIDTH 703 0
DWIDTH 8 0
BBX 8 8 0 0
BITMAP
0214
076C
2FFE
2EB9
1EB4
BFF8
39D0
35C0
ENDCHAR
STARTCHAR dollar
ENCODING 36
SWIDTH 493 0
DWIDTH 5 0
BBX 6 8 0 0
BITMAP
0240
0790
6FA0
BD00
1640
0740
7D00
2C00
ENDCHAR
STARTCHAR percent
ENCODING 37
SWIDTH 643 0
DWIDTH 7 0
BBX 7 8 0 0
BITMAP
0804
3D2C
7EB4
26D0
0B50
2DF0
76F4
61A0
ENDCHAR
STARTCHAR ampersand
ENCODING 38
SWIDTH 599 0
DWIDTH 7 0
BBX 6 6 0 0
BITMAP
0240
7B80
FFE0
6F90
0B00
0500
ENDCHAR
STARTCHAR quotesingle
ENCODING 39
SWIDTH 265 0
DWIDTH 3 0
BBX 3 5 1 3
BITMAP
74
B0
E0
E0
D0
ENDCHAR
STARTCHAR parenleft
ENCODING 40
SWIDTH 361 0
DWIDTH 4 0
BBX 5 11 0 -2
BITMAP
01C0
07C0
1E00
2C00
3800
7400
B000
B000
B400
7400
2400
ENDCHAR
STARTCHAR parenright
ENCODING 41
SWIDTH 361 0
DWIDTH 4 0
BBX 6 11 -2 -2
BITMAP
0280
02D0
01D0
01D0
01D0
02C0
03C0
0780
1F00
7C00
6000
ENDCHAR
STARTCHAR asterisk
ENCODING 42
SWIDTH 673 0
DWIDTH 7 0
BBX 7 6 1 2
BITMAP
1890
1FC0
BFF4
6F80
3DC0
1040
ENDCHAR
STARTCHAR plus
ENCODING 43
SWIDTH 579 0
DWIDTH 6 0
BBX 6 6 0 0
BITMAP
0600
0B00
6F90
BF90
1D00
1800
ENDCHAR
STARTCHAR comma
ENCODING 44
SWIDTH 204 0
DWIDTH 2 0
BBX 3 4 -1 -2
BITMAP
10
74
B0
90
ENDCHAR
STARTCHAR hyphen
ENCODING 45
SWIDTH 609 0
DWIDTH 7 0
BBX 6 2 0 2
BITMAP
6A90
BA90
ENDCHAR
STARTCHAR period
ENCODING 46
SWIDTH 228 0
DWIDTH 3 0
BBX 3 3 -1 -1
BITMAP
24
74
10
ENDCHAR
STARTCHAR slash
ENCODING 47
SWIDTH 401 0
DWIDTH 4 0
BBX 7 8 -1 0
BITMAP
0020
0074
01E0
0380
0B00
2C00
7400
7000
ENDCHAR
STARTCHAR zero
ENCODING 48
SWIDTH 686 0
DWIDTH 8 0
BBX 7 10 0 -1
BITMAP
0040
01E0
07F0
1FF0
3D38
B42C
B07C
BBF8
7FE0
0400
ENDCHAR
STARTCHAR one
ENCODING 49
SWIDTH 322 0
DWIDTH 4 0
BBX 3 8 0 0
BITMAP
34
38
2C
2C
38
78
B4
B0
ENDCHAR
STARTCHAR two
ENCODING 50
SWIDTH 650 0
DWIDTH 7 0
BBX 8 8 0 0
BITMAP
2F90
7FF4
11F4
07E0
1F40
3D59
7FFE
3FA4
ENDCHAR
STARTCHAR three
ENCODING 51
SWIDTH 561 0
DWIDTH 6 0
BBX 6 8 0 0
BITMAP
6AD0
FFF0
AFD0
2F40
1FD0
02E0
BFD0
BE40
ENDCHAR
STARTCHAR four
ENCODING 52
SWIDTH 582 0
DWIDTH 6 0
BBX 7 9 0 -1
BITMAP
00C0
61D0
71D0
7FF4
2FD0
0740
0700
0740
0100
ENDCHAR
STARTCHAR five
ENCODING 53
SWIDTH 580 0
DWIDTH 6 0
BBX 7 8 0 0
BITMAP
0A14
2FFC
7FA8
7E00
1B80
02D0
7FD0
2E40
ENDCHAR
STARTCHAR six
ENCODING 54
SWIDTH 500 0
DWIDTH 6 0
BBX 5 8 0 0
BITMAP
0B00
1F40
3C00
7400
BB80
EFC0
FF80
BE00
ENDCHAR
STARTCHAR seven
ENCODING 55
SWIDTH 576 0
DWIDTH 6 0
BBX 7 8 0 0
BITMAP
BE40
BFD0
01D0
01E4
3FF8
2F90
0E00
0D00
ENDCHAR
STARTCHAR eight
ENCODING 56
SWIDTH 537 0
DWIDTH 6 0
BBX 7 8 0 0
BITMAP
1F60
3FB4
75F4
3FD0
2F40
3B40
3B80
2F40
ENDCHAR
STARTCHAR nine
ENCODING 57
SWIDTH 529 0
DWIDTH 6 0
BBX 6 8 0 0
BITMAP
0B80
3FD0
7EE0
7FE0
16C0
0280
0280
0340
ENDCHAR
STARTCHAR colon
ENCODING 58
SWIDTH 241 0
DWIDTH 3 0
BBX 3 6 -1 -1
BITMAP
18
2C
00
24
74
10
ENDCHAR
STARTCHAR semicolon
ENCODING 59
SWIDTH 245 0
DWIDTH 3 0
BBX 3 7 -1 -2
BITMAP
18
2C
00
10
38
74
A0
ENDCHAR
STARTCHAR less
ENCODING 60
SWIDTH 625 0
DWIDTH 7 0
BBX 7 5 0 0
BITMAP
01B8
6FD0
FE00
1FD0
0190
ENDCHAR
STARTCHAR equal
ENCODING 61
SWIDTH 586 0
DWIDTH 6 0
BBX 6 4 0 1
BITMAP
6FE0
6A50
6A90
AA80
ENDCHAR
STARTCHAR greater
ENCODING 62
SWIDTH 634 0
DWIDTH 7 0
BBX 8 5 -1 0
BITMAP
1E80
06F8
06FD
7F80
6400
ENDCHAR
STARTCHAR question
ENCODING 63
SWIDTH 556 0
DWIDTH 6 0
BBX 7 9 0 -1
BITMAP
2FE4
3FF8
00B8
07E0
1E40
1400
6000
7400
1000
ENDCHAR
STARTCHAR at
ENCODING 64
SWIDTH 732 0
DWIDTH 8 0
BBX 8 9 0 -1
BITMAP
00F4
02E8
1E5D
7AE6
EBA6
DBFD
A550
2FF8
0150
ENDCHAR
STARTCHAR A
ENCODING 65
SWIDTH 702 0
DWIDTH 8 0
BBX 8 8 0 0
BITMAP
0090
07E0
1FF0
2EB4
3DBD
BFFC
F17C
E074
ENDCHAR
STARTCHAR B
ENCODING 66
SWIDTH 686 0
DWIDTH 8 0
BBX 7 8 0 0
BITMAP
6BE0
FEB8
ADF8
1FE0
2EB4
3C2C
7AFC
7F90
ENDCHAR
STARTCHAR C
ENCODING 67
SWIDTH 611 0
DWIDTH 7 0
BBX 7 8 0 0
BITMAP
00A0
0BF4
2F90
BD00
F000
E000
7FE0
1BE0
ENDCHAR
STARTCHAR D
ENCODING 68
SWIDTH 588 0
DWIDTH 6 0
BBX 7 8 0 0
BITMAP
6400
7F40
76D0
7470
74B4
B7E0
BF80
B400
ENDCHAR
STARTCHAR E
ENCODING 69
SWIDTH 626 0
DWIDTH 7 0
BBX 7 8 0 0
BITMAP
06B8
3FF8
3D40
3FD0
7FD0
B400
BBF4
7FE0
ENDCHAR
STARTCHAR F
ENCODING 70
SWIDTH 575 0
DWIDTH 6 0
BBX 8 8 0 0
BITMAP
06BD
7FE9
3E00
2D40
FFF0
BA50
B000
A000
ENDCHAR
STARTCHAR G
ENCODING 71
SWIDTH 789 0
DWIDTH 9 0
BBX 9 8 0 0
BITMAP
007400
02F800
0FD000
3E1800
B82F40
F06FC0
BFFF40
7F9000
ENDCHAR
STARTCHAR H
ENCODING 72
SWIDTH 695 0
DWIDTH 8 0
BBX 8 8 0 0
BITMAP
1018
381D
3C2D
782D
7EFC
BFF8
F878
B074
ENDCHAR
STARTCHAR I
ENCODING 73
SWIDTH 515 0
DWIDTH 6 0
BBX 8 8 -1 0
BITMAP
0AFE
0BFA
00E0
01D0
02C0
0380
6BE0
7E90
ENDCHAR
STARTCHAR J
ENCODING 74
SWIDTH 668 0
DWIDTH 7 0
BBX 9 8 0 0
BITMAP
1AAA40
7FFF80
14B400
00F000
00E000
02D000
FBC000
AE4000
ENDCHAR
STARTCHAR K
ENCODING 75
SWIDTH 776 0
DWIDTH 9 0
BBX 9 8 0 0
BITMAP
0A0500
1F2F00
2EBE00
3FF400
7FC000
BFE500
B87F80
B00500
ENDCHAR
STARTCHAR L
ENCODING 76
SWIDTH 632 0
DWIDTH 7 0
BBX 7 8 0 0
BITMAP
0D00
1E00
2D00
7C00
B800
B440
FFF4
7EA4
ENDCHAR
STARTCHAR M
ENCODING 77
SWIDTH 973 0
DWIDTH 11 0
BBX 11 8 0 0
BITMAP
074060
0FC1F4
1FC7F4
3FFFF4
7EFDB0
B450F0
F000E0
A00090
ENDCHAR
STARTCHAR N
ENCODING 78
SWIDTH 684 0
DWIDTH 8 0
BBX 8 8 0 0
BITMAP
0909
0F5E
2F2D
3F2C
7F7C
FFF8
F2F4
A090
ENDCHAR
STARTCHAR O
ENCODING 79
SWIDTH 744 0
DWIDTH 8 0
BBX 8 8 0 0
BITMAP
00B0
07F4
1FF8
3E2D
B80E
F02E
BFFD
7FE4
ENDCHAR
STARTCHAR P
ENCODING 80
SWIDTH 639 0
DWIDTH 7 0
BBX 8 8 0 0
BITMAP
07F4
0FFC
2D6D
7EFD
BFE4
7900
7400
7400
ENDCHAR
STARTCHAR Q
ENCODING 81
SWIDTH 744 0
DWIDTH 8 0
BBX 8 9 0 -1
BITMAP
00E0
02F8
0BED
3E0B
B9DF
F0FE
FBFC
7FAD
0008
ENDCHAR
STARTCHAR R
ENCODING 82
SWIDTH 646 0
DWIDTH 7 0
BBX 7 9 0 -1
BITMAP
02C0
0BF0
3EB4
7DB4
7FE0
BE00
BFE4
A2FC
0014
ENDCHAR
STARTCHAR S
ENCODING 83
SWIDTH 576 0
DWIDTH 6 0
BBX 8 8 0 0
BITMAP
06FC
7FFD
FE00
7F80
01D0
02D0
6F80
7E00
ENDCHAR
STARTCHAR T
ENCODING 84
SWIDTH 607 0
DWIDTH 7 0
BBX 9 8 0 0
BITMAP
5ABF40
FFFA40
578000
0B4000
0F0000
1D0000
1C0000
0D0000
ENDCHAR
STARTCHAR U
ENCODING 85
SWIDTH 695 0
DWIDTH 8 0
BBX 8 8 0 0
BITMAP
0005
300A
780F
781E
747D
7AF4
3FD0
1E40
ENDCHAR
STARTCHAR V
ENCODING 86
SWIDTH 583 0
DWIDTH 6 0
BBX 7 8 0 0
BITMAP
201C
747C
78F4
7AE0
3FC0
3F40
2E00
1D00
ENDCHAR
STARTCHAR W
ENCODING 87
SWIDTH 994 0
DWIDTH 11 0
BBX 12 8 0 0
BITMAP
080008
2D1C2D
3C3D3D
78BC78
B5FCF4
BBFEF0
BF8FD0
290740
ENDCHAR
STARTCHAR X
ENCODING 88
SWIDTH 623 0
DWIDTH 7 0
BBX 8 8 0 0
BITMAP
2408
3D7D
2FF8
0FD0
2FC0
BEE0
F0F0
D070
ENDCHAR
STARTCHAR Y
ENCODING 89
SWIDTH 493 0
DWIDTH 5 0
BBX 7 9 0 -1
BITMAP
6074
75F4
3BD0
3F80
1F00
2D00
7C00
7400
1000
ENDCHAR
STARTCHAR Z
ENCODING 90
SWIDTH 664 0
DWIDTH 7 0
BBX 8 9 0 -1
BITMAP
1BA9
1FFE
00F8
07E0
2F40
FD10
FAF8
BF90
1400
ENDCHAR
STARTCHAR bracketleft
ENCODING 91
SWIDTH 387 0
DWIDTH 4 0
BBX 9 12 -1 -2
BITMAP
02BF40
02EA40
038000
074000
0B0000
0B0000
0E0000
1D0000
2C0000
380000
7FE000
294000
ENDCHAR
STARTCHAR backslash
ENCODING 92
SWIDTH 352 0
DWIDTH 4 0
BBX 3 9 0 -1
BITMAP
60
74
34
24
28
1C
1C
1C
04
ENDCHAR
STARTCHAR bracketright
ENCODING 93
SWIDTH 403 0
DWIDTH 4 0
BBX 8 12 -3 -2
BITMAP
06FD
07AD
001D
002C
0038
0034
0074
00B0
00E0
01D0
BFC0
A540
ENDCHAR
STARTCHAR asciicircum
ENCODING 94
SWIDTH 518 0
DWIDTH 6 0
BBX 5 6 0 2
BITMAP
0340
0B80
1FC0
2EC0
B5C0
D080
ENDCHAR
STARTCHAR underscore
ENCODING 95
SWIDTH 708 0
DWIDTH 8 0
BBX 9 3 -1 -1
BITMAP
155400
FFFF40
140000
ENDCHAR
STARTCHAR grave
ENCODING 96
SWIDTH 754 0
DWIDTH 8 0
BBX 4 3 3 5
BITMAP
A0
7C
1D
ENDCHAR
STARTCHAR a
ENCODING 97
SWIDTH 581 0
DWIDTH 6 0
BBX 7 7 0 0
BITMAP
0140
0B80
2FC0
39D0
BFF4
EAE0
D1D0
ENDCHAR
STARTCHAR b
ENCODING 98
SWIDTH 573 0
DWIDTH 6 0
BBX 6 8 0 -1
BITMAP
1A40
FEE0
AAD0
2F80
39A0
76F0
BF80
0400
ENDCHAR
STARTCHAR c
ENCODING 99
SWIDTH 513 0
DWIDTH 6 0
BBX 6 7 0 0
BITMAP
0140
0BD0
7E40
B400
D000
BA40
2FC0
ENDCHAR
STARTCHAR d
ENCODING 100
SWIDTH 497 0
DWIDTH 5 0
BBX 5 7 0 0
BITMAP
5000
7D00
6780
70C0
62C0
BF40
B400
ENDCHAR
STARTCHAR e
ENCODING 101
SWIDTH 521 0
DWIDTH 6 0
BBX 6 7 0 0
BITMAP
0150
7FE0
3900
3F80
BA40
F680
BF80
ENDCHAR
STARTCHAR f
ENCODING 102
SWIDTH 455 0
DWIDTH 5 0
BBX 7 7 0 0
BITMAP
01A0
6FA4
7C00
7940
FF80
A000
9000
ENDCHAR
STARTCHAR g
ENCODING 103
SWIDTH 652 0
DWIDTH 7 0
BBX 8 7 0 0
BITMAP
0040
07E0
1F40
7C64
F07D
EAFD
7F90
ENDCHAR
STARTCHAR h
ENCODING 104
SWIDTH 582 0
DWIDTH 6 0
BBX 6 7 0 0
BITMAP
0010
3470
74B0
74B0
BFF0
F9D0
E0D0
ENDCHAR
STARTCHAR i
ENCODING 105
SWIDTH 320 0
DWIDTH 4 0
BBX 3 7 0 0
BITMAP
04
28
38
38
74
74
34
ENDCHAR
STARTCHAR j
ENCODING 106
SWIDTH 534 0
DWIDTH 6 0
BBX 8 7 0 0
BITMAP
1554
7FFD
11C0
02C0
0380
9B40
BE00
ENDCHAR
STARTCHAR k
ENCODING 107
SWIDTH 645 0
DWIDTH 7 0
BBX 7 7 0 0
BITMAP
0400
2D78
3EF4
7F80
BF40
BAFC
A068
ENDCHAR
STARTCHAR l
ENCODING 108
SWIDTH 533 0
DWIDTH 6 0
BBX 6 7 0 0
BITMAP
1400
2C00
3800
7400
B000
FA90
BE90
ENDCHAR
STARTCHAR m
ENCODING 109
SWIDTH 814 0
DWIDTH 9 0
BBX 9 7 0 0
BITMAP
050100
1F0780
2F6F80
7FFF80
B7E740
F00740
900600
ENDCHAR
STARTCHAR n
ENCODING 110
SWIDTH 564 0
DWIDTH 6 0
BBX 7 7 0 0
BITMAP
0410
1D74
2D70
7DB0
BEE0
FBD0
9280
ENDCHAR
STARTCHAR o
ENCODING 111
SWIDTH 628 0
DWIDTH 7 0
BBX 7 7 0 0
BITMAP
0180
07D0
1FE0
7870
B034
E6F4
7F90
ENDCHAR
STARTCHAR p
ENCODING 112
SWIDTH 524 0
DWIDTH 6 0
BBX 6 7 0 0
BITMAP
0680
1FE0
29B0
BFE0
BE40
B000
B000
ENDCHAR
STARTCHAR q
ENCODING 113
SWIDTH 625 0
DWIDTH 7 0
BBX 7 8 0 -1
BITMAP
0140
03E0
1FB4
7928
F2B8
EBF0
BEB0
0020
ENDCHAR
STARTCHAR r
ENCODING 114
SWIDTH 541 0
DWIDTH 6 0
BBX 6 8 0 -1
BITMAP
0200
0F80
3ED0
7BD0
BE40
BE40
A7F0
0050
ENDCHAR
STARTCHAR s
ENCODING 115
SWIDTH 463 0
DWIDTH 5 0
BBX 7 7 0 0
BITMAP
0190
6FF4
FD00
6F00
0280
1B40
7D00
ENDCHAR
STARTCHAR t
ENCODING 116
SWIDTH 479 0
DWIDTH 5 0
BBX 7 7 0 0
BITMAP
15A4
FFF8
5B00
0E00
1C00
2800
1800
ENDCHAR
STARTCHAR u
ENCODING 117
SWIDTH 584 0
DWIDTH 6 0
BBX 7 7 0 0
BITMAP
0010
2024
7438
7474
75E0
7FC0
2E00
ENDCHAR
STARTCHAR v
ENCODING 118
SWIDTH 485 0
DWIDTH 5 0
BBX 6 7 0 0
BITMAP
1020
70B0
76E0
7B80
3F00
3D00
2C00
ENDCHAR
STARTCHAR w
ENCODING 119
SWIDTH 825 0
DWIDTH 9 0
BBX 10 7 0 0
BITMAP
000040
2820E0
38B1D0
75F2C0
B7F740
BFBF00
792D00
ENDCHAR
STARTCHAR x
ENCODING 120
SWIDTH 506 0
DWIDTH 6 0
BBX 6 8 0 -1
BITMAP
1010
78B0
2FD0
1F40
7F40
F3C0
D1C0
4000
ENDCHAR
STARTCHAR y
ENCODING 121
SWIDTH 400 0
DWIDTH 4 0
BBX 6 8 0 -1
BITMAP
5080
72D0
7B80
3E00
2D00
3800
7000
1000
ENDCHAR
STARTCHAR z
ENCODING 122
SWIDTH 547 0
DWIDTH 6 0
BBX 7 8 0 -1
BITMAP
1550
2FF4
02E0
1F80
7D00
F6D0
FF80
1400
ENDCHAR
STARTCHAR braceleft
ENCODING 123
SWIDTH 448 0
DWIDTH 5 0
BBX 9 12 0 -2
BITMAP
02BF40
02EA40
038000
074000
1F0000
B80000
7D0000
1D0000
2C0000
380000
7FE000
294000
ENDCHAR
STARTCHAR bar
ENCODING 124
SWIDTH 332 0
DWIDTH 4 0
BBX 4 8 0 0
BITMAP
09
0E
1D
2C
38
74
B0
D0
ENDCHAR
STARTCHAR braceright
ENCODING 125
SWIDTH 481 0
DWIDTH 5 0
BBX 8 12 -3 -2
BITMAP
06FC
07AD
001C
002C
0038
003E
002F
00F8
00E0
01D0
BFC0
A540
ENDCHAR
STARTCHAR asciitilde
ENCODING 126
SWIDTH 581 0
DWIDTH 6 0
BBX 6 3 0 2
BITMAP
1410
7FA0
9680
ENDCHAR
STARTCHAR uni00A0
ENCODING 160
SWIDTH 370 0
DWIDTH 4 0
BBX 1 1 0 0
BITMAP
00
ENDCHAR
STARTCHAR exclamdown
ENCODING 161
SWIDTH 260 0
DWIDTH 3 0
BBX 3 8 0 0
BITMAP
38
24
10
70
B0
A0
E0
D0
ENDCHAR
STARTCHAR cent
ENCODING 162
SWIDTH 488 0
DWIDTH 5 0
BBX 5 8 0 0
BITMAP
0200
0780
2F80
B800
E000
B940
2E80
3800
ENDCHAR
STARTCHAR sterling
ENCODING 163
SWIDTH 586 0
DWIDTH 6 0
BBX 7 7 0 0
BITMAP
07F4
0E60
6F80
BE80
7990
FFD0
1400
ENDCHAR
STARTCHAR currency
ENCODING 164
SWIDTH 509 0
DWIDTH 6 0
BBX 6 6 0 0
BITMAP
2A90
3FD0
7B80
BB80
BB40
4100
ENDCHAR
STARTCHAR yen
ENCODING 165
SWIDTH 563 0
DWIDTH 6 0
BBX 6 7 0 0
BITMAP
2460
2DF0
1FC0
6FD0
BF90
2D00
2800
ENDCHAR
STARTCHAR brokenbar
ENCODING 166
SWIDTH 301 0
DWIDTH 3 0
BBX 4 8 0 0
BITMAP
09
0D
1C
18
00
70
E0
D0
ENDCHAR
STARTCHAR section
ENCODING 167
SWIDTH 630 0
DWIDTH 7 0
BBX 7 10 0 -1
BITMAP
01A4
2FF8
3E00
2FD0
7EF4
79B4
2FE0
06F0
6BF0
BE90
ENDCHAR
STARTCHAR dieresis
ENCODING 168
SWIDTH 754 0
DWIDTH 8 0
BBX 5 2 2 6
BITMAP
72C0
6180
ENDCHAR
STARTCHAR copyright
ENCODING 169
SWIDTH 614 0
DWIDTH 7 0
BBX 7 7 0 1
BITMAP
0A90
2964
7798
9818
9A64
61A0
1A40
ENDCHAR
STARTCHAR ordfeminine
ENCODING 170
SWIDTH 454 0
DWIDTH 5 0
BBX 5 5 0 2
BITMAP
0A00
3F00
7F80
FF80
9200
ENDCHAR
STARTCHAR guillemotleft
ENCODING 171
SWIDTH 566 0
DWIDTH 6 0
BBX 6 5 0 0
BITMAP
0820
2DE0
E780
A780
29D0
ENDCHAR
STARTCHAR logicalnot
ENCODING 172
SWIDTH 698 0
DWIDTH 8 0
BBX 7 4 0 0
BITMAP
6AA4
BAB8
0034
0070
ENDCHAR
STARTCHAR sfthyphen
ENCODING 173
SWIDTH 608 0
DWIDTH 7 0
BBX 6 2 0 2
BITMAP
6A90
BA90
ENDCHAR
STARTCHAR registered
ENCODING 174
SWIDTH 624 0
DWIDTH 7 0
BBX 7 7 0 1
BITMAP
0690
2964
76D8
AB98
9F68
65E0
1A80
ENDCHAR
STARTCHAR macron
ENCODING 175
SWIDTH 754 0
DWIDTH 8 0
BBX 4 2 3 6
BITMAP
FE
54
ENDCHAR
STARTCHAR degree
ENCODING 176
SWIDTH 284 0
DWIDTH 3 0
BBX 3 4 1 5
BITMAP
24
BC
FC
50
ENDCHAR
STARTCHAR plusminus
ENCODING 177
SWIDTH 559 0
DWIDTH 6 0
BBX 7 8 -1 0
BITMAP
0040
01D0
06E4
1FF8
07C0
0380
1690
7FF4
ENDCHAR
STARTCHAR twosuperior
ENCODING 178
SWIDTH 386 0
DWIDTH 4 0
BBX 4 4 1 4
BITMAP
A8
BC
B9
FE
ENDCHAR
STARTCHAR threesuperior
ENCODING 179
SWIDTH 366 0
DWIDTH 4 0
BBX 3 4 1 4
BITMAP
A8
FC
7C
BC
ENDCHAR
STARTCHAR acute
ENCODING 180
SWIDTH 754 0
DWIDTH 8 0
BBX 4 3 3 5
BITMAP
1D
7C
A0
ENDCHAR
STARTCHAR mu
ENCODING 181
SWIDTH 569 0
DWIDTH 6 0
BBX 6 7 0 -1
BITMAP
0020
3070
70B0
B1E0
BF80
FE00
D000
ENDCHAR
STARTCHAR paragraph
ENCODING 182
SWIDTH 729 0
DWIDTH 8 0
BBX 9 9 0 0
BITMAP
000400
06FF40
3FEE40
79DD00
3EDD00
0BFD00
03BD00
037800
076C00
ENDCHAR
STARTCHAR periodcentered
ENCODING 183
SWIDTH 226 0
DWIDTH 3 0
BBX 2 2 0 3
BITMAP
70
60
ENDCHAR
STARTCHAR cedilla
ENCODING 184
SWIDTH 754 0
DWIDTH 8 0
BBX 4 5 3 -4
BITMAP
10
74
2D
AD
54
ENDCHAR
STARTCHAR onesuperior
ENCODING 185
SWIDTH 206 0
DWIDTH 2 0
BBX 3 4 0 4
BITMAP
20
34
34
70
ENDCHAR
STARTCHAR ordmasculine
ENCODING 186
SWIDTH 445 0
DWIDTH 5 0
BBX 5 5 0 2
BITMAP
0B00
3F40
B780
FF80
6900
ENDCHAR
STARTCHAR guillemotright
ENCODING 187
SWIDTH 595 0
DWIDTH 7 0
BBX 7 5 -1 0
BITMAP
1480
1DB4
0B28
2EB4
7580
ENDCHAR
STARTCHAR onequarter
ENCODING 188
SWIDTH 705 0
DWIDTH 8 0
BBX 8 8 0 0
BITMAP
2030
34B0
36D0
7740
1E98
38FD
B0B4
A034
ENDCHAR
STARTCHAR onehalf
ENCODING 189
SWIDTH 750 0
DWIDTH 8 0
BBX 8 8 0 0
BITMAP
2030
34B0
36D0
7740
1EF8
387C
B0B9
A0F9
ENDCHAR
STARTCHAR threequarters
ENCODING 190
SWIDTH 818 0
DWIDTH 9 0
BBX 8 8 1 0
BITMAP
BC18
B878
B8E0
FB84
0E9C
38FD
A074
D070
ENDCHAR
STARTCHAR questiondown
ENCODING 191
SWIDTH 556 0
DWIDTH 6 0
BBX 7 9 -1 -1
BITMAP
0034
0034
0040
01E0
1F80
7D00
BEA0
7FF0
0140
ENDCHAR
STARTCHAR Agrave
ENCODING 192
SWIDTH 702 0
DWIDTH 8 0
BBX 8 11 0 0
BITMAP
0280
01F0
0074
0090
07E0
1FF0
2EB4
3DBD
BFFC
F17C
E074
ENDCHAR
STARTCHAR Aacute
ENCODING 193
SWIDTH 702 0
DWIDTH 8 0
BBX 8 12 0 0
BITMAP
0074
01F4
0280
0000
0090
07E0
1FF0
2EB4
3DBD
BFFC
F17C
E074
ENDCHAR
STARTCHAR Acircumflex
ENCODING 194
SWIDTH 702 0
DWIDTH 8 0
BBX 8 12 0 0
BITMAP
0050
02F4
076C
0004
0090
07E0
1FF0
2EB4
3DBD
BFFC
F17C
E074
ENDCHAR
STARTCHAR Atilde
ENCODING 195
SWIDTH 702 0
DWIDTH 8 0
BBX 8 11 0 0
BITMAP
0040
02FB
0669
0090
07E0
1FF0
2EB4
3DBD
BFFC
F17C
E074
ENDCHAR
STARTCHAR Adieresis
ENCODING 196
SWIDTH 702 0
DWIDTH 8 0
BBX 8 10 0 0
BITMAP
075C
0618
0090
07E0
1FF0
2EB4
3DBD
BFFC
F17C
E074
ENDCHAR
STARTCHAR Aring
ENCODING 197
SWIDTH 702 0
DWIDTH 8 0
BBX 8 11 0 0
BITMAP
0010
00B4
01E8
01F4
07E0
1FF0
2EB4
3DBD
BFFC
F17C
E074
ENDCHAR
STARTCHAR AE
ENCODING 198
SWIDTH 1153 0
DWIDTH 13 0
BBX 14 8 -1 0
BITMAP
00281AE0
01BDFFE0
03FDF500
0BADFF40
1F6FFF40
3FFFC000
756FEFC0
B03AFF80
ENDCHAR
STARTCHAR Ccedilla
ENCODING 199
SWIDTH 611 0
DWIDTH 7 0
BBX 7 12 0 -4
BITMAP
00A0
0BF4
2F90
BD00
F000
E000
7FE0
1FE0
1D00
1B40
2B40
1500
ENDCHAR
STARTCHAR Egrave
ENCODING 200
SWIDTH 626 0
DWIDTH 7 0
BBX 7 12 0 0
BITMAP
0340
02D0
00A0
0000
06B8
3FF8
3D40
3FD0
7FD0
B400
BBF4
7FE0
ENDCHAR
STARTCHAR Eacute
ENCODING 201
SWIDTH 626 0
DWIDTH 7 0
BBX 7 12 0 0
BITMAP
0074
01F0
0280
0000
06B8
3FF8
3D40
3FD0
7FD0
B400
BBF4
7FE0
ENDCHAR
STARTCHAR Ecircumflex
ENCODING 202
SWIDTH 626 0
DWIDTH 7 0
BBX 7 12 0 0
BITMAP
0040
03E0
0A38
0000
06B8
3FF8
3D40
3FD0
7FD0
B400
BBF4
7FE0
ENDCHAR
STARTCHAR Edieresis
ENCODING 203
SWIDTH 626 0
DWIDTH 7 0
BBX 7 10 0 0
BITMAP
0A28
0614
06B8
3FF8
3D40
3FD0
7FD0
B400
BBF4
7FE0
ENDCHAR
STARTCHAR Igrave
ENCODING 204
SWIDTH 515 0
DWIDTH 6 0
BBX 8 12 -1 0
BITMAP
01C0
01F0
0074
0000
0AFE
0BFA
00E0
01D0
02C0
0380
6BE0
7E90
ENDCHAR
STARTCHAR Iacute
ENCODING 205
SWIDTH 515 0
DWIDTH 6 0
BBX 8 12 -1 0
BITMAP
000A
002E
0074
0000
0AFE
0BFA
00E0
01D0
02C0
0380
6BE0
7E90
ENDCHAR
STARTCHAR Icircumflex
ENCODING 206
SWIDTH 515 0
DWIDTH 6 0
BBX 8 12 -1 0
BITMAP
0010
00BD
02CA
0000
0AFE
0BFA
00E0
01D0
02C0
0380
6BE0
7E90
ENDCHAR
STARTCHAR Idieresis
ENCODING 207
SWIDTH 515 0
DWIDTH 6 0
BBX 8 11 -1 0
BITMAP
01CB
0186
0000
0AFE
0BFA
00E0
01D0
02C0
0380
6BE0
7E90
ENDCHAR
STARTCHAR Eth
ENCODING 208
SWIDTH 656 0
DWIDTH 7 0
BBX 7 8 0 0
BITMAP
1900
2F80
29B4
BE28
FE2C
2EF4
3FD0
3900
ENDCHAR
STARTCHAR Ntilde
ENCODING 209
SWIDTH 684 0
DWIDTH 8 0
BBX 8 11 0 0
BITMAP
01FB
0269
0000
0909
0F5E
2F2D
3F2C
7F7C
FFF8
F2F4
A090
ENDCHAR
STARTCHAR Ograve
ENCODING 210
SWIDTH 744 0
DWIDTH 8 0
BBX 8 11 0 0
BITMAP
00A0
00B8
001D
00B4
07F4
1FF8
3E2D
B80E
F02E
BFFD
7FE4
ENDCHAR
STARTCHAR Oacute
ENCODING 211
SWIDTH 744 0
DWIDTH 8 0
BBX 8 12 0 0
BITMAP
0074
01F4
0280
0000
00B0
07F4
1FF8
3E2D
B80E
F02E
BFFD
7FE4
ENDCHAR
STARTCHAR Ocircumflex
ENCODING 212
SWIDTH 744 0
DWIDTH 8 0
BBX 8 12 0 0
BITMAP
0010
01F8
029E
0000
00B0
07F4
1FF8
3E2D
B80E
F02E
BFFD
7FE4
ENDCHAR
STARTCHAR Otilde
ENCODING 213
SWIDTH 744 0
DWIDTH 8 0
BBX 8 11 0 0
BITMAP
01FB
0269
0000
00B0
07F4
1FF8
3E2D
B80E
F02E
BFFD
7FE4
ENDCHAR
STARTCHAR Odieresis
ENCODING 214
SWIDTH 744 0
DWIDTH 8 0
BBX 8 10 0 0
BITMAP
028E
0249
00B0
07F4
1FF8
3E2D
B80E
F02E
BFFD
7FE4
ENDCHAR
STARTCHAR multiply
ENCODING 215
SWIDTH 490 0
DWIDTH 5 0
BBX 6 6 0 0
BITMAP
1040
7AD0
2E00
7E00
E740
8240
ENDCHAR
STARTCHAR Oslash
ENCODING 216
SWIDTH 744 0
DWIDTH 8 0
BBX 8 10 0 -2
BITMAP
00BA
07FE
1FFC
3EBD
BADE
FBAE
BFFD
7FE4
3800
1400
ENDCHAR
STARTCHAR Ugrave
ENCODING 217
SWIDTH 695 0
DWIDTH 8 0
BBX 8 11 0 0
BITMAP
0A00
07C0
01D0
0005
300A
780F
781E
747D
7AF4
3FD0
1E40
ENDCHAR
STARTCHAR Uacute
ENCODING 218
SWIDTH 695 0
DWIDTH 8 0
BBX 8 11 0 0
BITMAP
0028
00B8
01D0
0005
300A
780F
781E
747D
7AF4
3FD0
1E40
ENDCHAR
STARTCHAR Ucircumflex
ENCODING 219
SWIDTH 695 0
DWIDTH 8 0
BBX 8 12 0 0
BITMAP
0040
02F4
0B28
0000
0005
300A
780F
781E
747D
7AF4
3FD0
1E40
ENDCHAR
STARTCHAR Udieresis
ENCODING 220
SWIDTH 695 0
DWIDTH 8 0
BBX 8 10 0 0
BITMAP
072C
0618
0005
300A
780F
781E
747D
7AF4
3FD0
1E40
ENDCHAR
STARTCHAR Yacute
ENCODING 221
SWIDTH 493 0
DWIDTH 5 0
BBX 7 13 0 -1
BITMAP
0070
01E0
0280
0000
6074
75F4
3BD0
3F80
1F00
2D00
7C00
7400
1000
ENDCHAR
STARTCHAR Thorn
ENCODING 222
SWIDTH 680 0
DWIDTH 7 0
BBX 8 8 0 0
BITMAP
1800
3E50
3FFC
783D
B9FD
BFE0
B900
7400
ENDCHAR
STARTCHAR germandbls
ENCODING 223
SWIDTH 931 0
DWIDTH 10 0
BBX 12 7 0 0
BITMAP
019064
6FFBFD
FD2F40
6F1AD0
0280A0
1B46D0
7D1F40
ENDCHAR
STARTCHAR agrave
ENCODING 224
SWIDTH 581 0
DWIDTH 6 0
BBX 7 10 0 0
BITMAP
0740
07D0
00A0
0140
0B80
2FC0
39D0
BFF4
EAE0
D1D0
ENDCHAR
STARTCHAR aacute
ENCODING 225
SWIDTH 581 0
DWIDTH 6 0
BBX 7 10 0 0
BITMAP
01D0
03D0
0700
0140
0B80
2FC0
39D0
BFF4
EAE0
D1D0
ENDCHAR
STARTCHAR acircumflex
ENCODING 226
SWIDTH 581 0
DWIDTH 6 0
BBX 7 10 0 0
BITMAP
0140
0BD0
1D70
0550
0B80
2FC0
39D0
BFF4
EAE0
D1D0
ENDCHAR
STARTCHAR atilde
ENCODING 227
SWIDTH 581 0
DWIDTH 6 0
BBX 7 10 0 0
BITMAP
0100
0BE8
19A0
0140
0B80
2FC0
39D0
BFF4
EAE0
D1D0
ENDCHAR
STARTCHAR adieresis
ENCODING 228
SWIDTH 581 0
DWIDTH 6 0
BBX 7 9 0 0
BITMAP
0E34
0924
0140
0B80
2FC0
39D0
BFF4
EAE0
D1D0
ENDCHAR
STARTCHAR aring
ENCODING 229
SWIDTH 581 0
DWIDTH 6 0
BBX 7 9 0 0
BITMAP
00D0
03A0
07E0
0B80
2FC0
39D0
BFF4
EAE0
D1D0
ENDCHAR
STARTCHAR ae
ENCODING 230
SWIDTH 948 0
DWIDTH 10 0
BBX 12 7 -1 0
BITMAP
005055
01F7FD
0BF790
0EBBF4
2FFF90
76BE68
A0BFF8
ENDCHAR
STARTCHAR ccedilla
ENCODING 231
SWIDTH 513 0
DWIDTH 6 0
BBX 6 10 0 -3
BITMAP
0140
0BD0
7E40
B400
D000
BA40
2FC0
1C00
1B00
2F00
ENDCHAR
STARTCHAR egrave
ENCODING 232
SWIDTH 521 0
DWIDTH 6 0
BBX 6 10 0 0
BITMAP
1D00
1F00
0340
0150
7FE0
3900
3F80
BA40
F680
BF80
ENDCHAR
STARTCHAR eacute
ENCODING 233
SWIDTH 521 0
DWIDTH 6 0
BBX 6 10 0 0
BITMAP
01D0
07D0
0A00
0150
7FE0
3900
3F80
BA40
F680
BF80
ENDCHAR
STARTCHAR ecircumflex
ENCODING 234
SWIDTH 521 0
DWIDTH 6 0
BBX 7 10 0 0
BITMAP
0140
07E0
0D74
0560
7FE0
3900
3F80
BA40
F680
BF80
ENDCHAR
STARTCHAR edieresis
ENCODING 235
SWIDTH 521 0
DWIDTH 6 0
BBX 7 9 0 0
BITMAP
0E34
0924
0150
7FE0
3900
3F80
BA40
F680
BF80
ENDCHAR
STARTCHAR igrave
ENCODING 236
SWIDTH 320 0
DWIDTH 4 0
BBX 4 10 0 0
BITMAP
38
2E
07
04
28
38
38
74
74
34
ENDCHAR
STARTCHAR iacute
ENCODING 237
SWIDTH 320 0
DWIDTH 4 0
BBX 6 10 0 0
BITMAP
00A0
03D0
0740
0400
2800
3800
3800
7400
7400
3400
ENDCHAR
STARTCHAR icircumflex
ENCODING 238
SWIDTH 320 0
DWIDTH 4 0
BBX 5 10 0 0
BITMAP
0400
2F40
76C0
1400
2800
3800
3800
7400
7400
3400
ENDCHAR
STARTCHAR idieresis
ENCODING 239
SWIDTH 320 0
DWIDTH 4 0
BBX 5 9 0 0
BITMAP
72C0
6180
0400
2800
3800
3800
7400
7400
3400
ENDCHAR
STARTCHAR eth
ENCODING 240
SWIDTH 541 0
DWIDTH 6 0
BBX 7 7 -1 0
BITMAP
0400
0F80
0DB0
7F28
2D78
1FE0
1E40
ENDCHAR
STARTCHAR ntilde
ENCODING 241
SWIDTH 564 0
DWIDTH 6 0
BBX 8 10 0 0
BITMAP
0040
03EE
0678
0410
1D74
2D70
7DB0
BEE0
FBD0
9280
ENDCHAR
STARTCHAR ograve
ENCODING 242
SWIDTH 628 0
DWIDTH 7 0
BBX 7 10 0 0
BITMAP
0380
02E0
0070
0180
07D0
1FE0
7870
B034
E6F4
7F90
ENDCHAR
STARTCHAR oacute
ENCODING 243
SWIDTH 628 0
DWIDTH 7 0
BBX 7 10 0 0
BITMAP
00A0
02D0
0740
0180
07D0
1FE0
7870
B034
E6F4
7F90
ENDCHAR
STARTCHAR ocircumflex
ENCODING 244
SWIDTH 628 0
DWIDTH 7 0
BBX 7 11 0 0
BITMAP
0040
02F4
0B28
0000
0180
07D0
1FE0
7870
B034
E6F4
7F90
ENDCHAR
STARTCHAR otilde
ENCODING 245
SWIDTH 628 0
DWIDTH 7 0
BBX 8 10 0 0
BITMAP
0040
03EE
0678
0180
07D0
1FE0
7870
B034
E6F4
7F90
ENDCHAR
STARTCHAR odieresis
ENCODING 246
SWIDTH 628 0
DWIDTH 7 0
BBX 7 9 0 0
BITMAP
072C
0618
0180
07D0
1FE0
7870
B034
E6F4
7F90
ENDCHAR
STARTCHAR divide
ENCODING 247
SWIDTH 559 0
DWIDTH 6 0
BBX 6 7 0 0
BITMAP
0100
0B00
0500
AF90
AA50
1900
1C00
ENDCHAR
STARTCHAR oslash
ENCODING 248
SWIDTH 632 0
DWIDTH 7 0
BBX 7 9 0 -2
BITMAP
0194
07F4
1FF0
7AF0
B774
FFF4
7F90
3400
1000
ENDCHAR
STARTCHAR ugrave
ENCODING 249
SWIDTH 584 0
DWIDTH 6 0
BBX 7 10 0 0
BITMAP
0A00
0B80
01C0
0010
2024
7438
7474
75E0
7FC0
2E00
ENDCHAR
STARTCHAR uacute
ENCODING 250
SWIDTH 584 0
DWIDTH 6 0
BBX 7 10 0 0
BITMAP
0070
01E0
0280
0010
2024
7438
7474
75E0
7FC0
2E00
ENDCHAR
STARTCHAR ucircumflex
ENCODING 251
SWIDTH 584 0
DWIDTH 6 0
BBX 7 11 0 0
BITMAP
0140
07E0
0E74
0400
0010
2024
7438
7474
75E0
7FC0
2E00
ENDCHAR
STARTCHAR udieresis
ENCODING 252
SWIDTH 584 0
DWIDTH 6 0
BBX 7 9 0 0
BITMAP
0E34
0924
0010
2024
7438
7474
75E0
7FC0
2E00
ENDCHAR
STARTCHAR yacute
ENCODING 253
SWIDTH 400 0
DWIDTH 4 0
BBX 6 12 0 -1
BITMAP
00A0
02E0
0340
0000
5080
72D0
7B80
3E00
2D00
3800
7000
1000
ENDCHAR
STARTCHAR thorn
ENCODING 254
SWIDTH 579 0
DWIDTH 6 0
BBX 7 7 0 0
BITMAP
1000
3940
7EF0
74B4
BBD0
B900
7000
ENDCHAR
STARTCHAR ydieresis
ENCODING 255
SWIDTH 400 0
DWIDTH 4 0
BBX 6 11 0 -1
BITMAP
1CB0
1860
0000
5080
72D0
7B80
3E00
2D00
3800
7000
1000
ENDCHAR
STARTCHAR dotlessi
ENCODING 305
SWIDTH 320 0
DWIDTH 4 0
BBX 3 7 0 0
BITMAP
04
28
38
38
74
74
34
ENDCHAR
STARTCHAR Lslash
ENCODING 321
SWIDTH 632 0
DWIDTH 7 0
BBX 8 8 -1 0
BITMAP
0340
0780
0B80
6FD0
FE00
3D10
3FFD
1FA9
ENDCHAR
STARTCHAR lslash
ENCODING 322
SWIDTH 533 0
DWIDTH 6 0
BBX 7 7 -1 0
BITMAP
0500
0B00
0F40
6F80
BC00
3EA4
2FA4
ENDCHAR
STARTCHAR OE
ENCODING 338
SWIDTH 1212 0
DWIDTH 13 0
BBX 14 8 0 0
BITMAP
00B01AD0
07F6FFD0
1FFAE400
3E2EFE00
B80FFE00
F02F8000
BFFFFF80
7FE7FE40
ENDCHAR
STARTCHAR oe
ENCODING 339
SWIDTH 1010 0
DWIDTH 11 0
BBX 12 7 0 0
BITMAP
018054
07DBFD
1FEB50
787BF0
B03E90
E6FEA4
7FAFF4
ENDCHAR
STARTCHAR Scaron
ENCODING 352
SWIDTH 576 0
DWIDTH 6 0
BBX 8 12 0 0
BITMAP
0104
0B78
02E0
0040
06FC
7FFD
FE00
7F80
01D0
02D0
6F80
7E00
ENDCHAR
STARTCHAR scaron
ENCODING 353
SWIDTH 463 0
DWIDTH 5 0
BBX 7 11 0 0
BITMAP
1000
2DE0
0B80
0100
0190
6FF4
FD00
6F00
0280
1B40
7D00
ENDCHAR
STARTCHAR Ydieresis
ENCODING 376
SWIDTH 493 0
DWIDTH 5 0
BBX 7 12 0 -1
BITMAP
0E34
0924
0000
6074
75F4
3BD0
3F80
1F00
2D00
7C00
7400
1000
ENDCHAR
STARTCHAR Zcaron
ENCODING 381
SWIDTH 664 0
DWIDTH 7 0
BBX 8 13 0 -1
BITMAP
0041
02DE
00B8
0010
1BA9
1FFE
00F8
07E0
2F40
FD10
FAF8
BF90
1400
ENDCHAR
STARTCHAR zcaron
ENCODING 382
SWIDTH 547 0
DWIDTH 6 0
BBX 7 12 0 -1
BITMAP
0104
0B78
02E0
0040
1550
2FF4
02E0
1F80
7D00
F6D0
FF80
1400
ENDCHAR
STARTCHAR circumflex
ENCODING 710
SWIDTH 754 0
DWIDTH 8 0
BBX 5 4 2 5
BITMAP
0500
2F40
76C0
0040
ENDCHAR
STARTCHAR caron
ENCODING 711
SWIDTH 754 0
DWIDTH 8 0
BBX 5 4 2 5
BITMAP
1040
76C0
2F40
0400
ENDCHAR
STARTCHAR breve
ENCODING 728
SWIDTH 754 0
DWIDTH 8 0
BBX 5 3 2 6
BITMAP
1040
7AC0
1E40
ENDCHAR
STARTCHAR dotaccent
ENCODING 729
SWIDTH 754 0
DWIDTH 8 0
BBX 2 2 4 6
BITMAP
D0
90
ENDCHAR
STARTCHAR ring
ENCODING 730
SWIDTH 754 0
DWIDTH 8 0
BBX 4 4 3 5
BITMAP
18
7C
BD
54
ENDCHAR
STARTCHAR ogonek
ENCODING 731
SWIDTH 754 0
DWIDTH 8 0
BBX 5 3 3 -3
BITMAP
9000
A500
2F40
ENDCHAR
STARTCHAR tilde
ENCODING 732
SWIDTH 754 0
DWIDTH 8 0
BBX 6 3 2 6
BITMAP
0400
7ED0
9B80
ENDCHAR
STARTCHAR hungarumlaut
ENCODING 733
SWIDTH 754 0
DWIDTH 8 0
BBX 6 3 2 5
BITMAP
28A0
BAD0
D740
ENDCHAR
STARTCHAR endash
ENCODING 8211
SWIDTH 588 0
DWIDTH 6 0
BBX 6 2 0 2
BITMAP
6A90
BA90
ENDCHAR
STARTCHAR emdash
ENCODING 8212
SWIDTH 878 0
DWIDTH 10 0
BBX 9 2 0 2
BITMAP
6AAA40
7AAA40
ENDCHAR
STARTCHAR quoteleft
ENCODING 8216
SWIDTH 203 0
DWIDTH 2 0
BBX 3 4 1 5
BITMAP
10
B4
F0
D0
ENDCHAR
STARTCHAR quoteright
ENCODING 8217
SWIDTH 199 0
DWIDTH 2 0
BBX 3 3 1 5
BITMAP
74
B0
E0
ENDCHAR
STARTCHAR quotesinglbase
ENCODING 8218
SWIDTH 204 0
DWIDTH 2 0
BBX 3 4 -1 -2
BITMAP
10
74
B0
90
ENDCHAR
STARTCHAR quotedblleft
ENCODING 8220
SWIDTH 410 0
DWIDTH 5 0
BBX 5 4 1 5
BITMAP
1100
B780
EB00
DA00
ENDCHAR
STARTCHAR quotedblright
ENCODING 8221
SWIDTH 425 0
DWIDTH 5 0
BBX 5 3 1 5
BITMAP
7780
B780
EA00
ENDCHAR
STARTCHAR quotedblbase
ENCODING 8222
SWIDTH 430 0
DWIDTH 5 0
BBX 5 4 -1 -2
BITMAP
1140
7780
BB40
9A00
ENDCHAR
STARTCHAR bullet
ENCODING 8226
SWIDTH 299 0
DWIDTH 3 0
BBX 3 3 0 2
BITMAP
10
B8
74
ENDCHAR
STARTCHAR ellipsis
ENCODING 8230
SWIDTH 768 0
DWIDTH 8 0
BBX 9 3 -1 -1
BITMAP
249240
75D740
104100
ENDCHAR
STARTCHAR perthousand
ENCODING 8240
SWIDTH 889 0
DWIDTH 10 0
BBX 10 8 0 0
BITMAP
080400
3D2C00
7EB400
26D000
0B5040
2DF2D0
76FBA0
61A690
ENDCHAR
STARTCHAR guilsinglleft
ENCODING 8249
SWIDTH 322 0
DWIDTH 4 0
BBX 3 5 0 0
BITMAP
08
2C
E0
A0
28
ENDCHAR
STARTCHAR guilsinglright
ENCODING 8250
SWIDTH 341 0
DWIDTH 4 0
BBX 4 5 -1 0
BITMAP
14
1D
0B
2E
74
ENDCHAR
STARTCHAR fraction
ENCODING 8260
SWIDTH 541 0
DWIDTH 6 0
BBX 6 8 0 0
BITMAP
0060
00E0
02C0
0B40
1D00
7400
A000
A000
ENDCHAR
STARTCHAR Euro
ENCODING 8364
SWIDTH 565 0
DWIDTH 6 0
BBX 6 7 0 0
BITMAP
0050
07E0
1F40
7E40
FE80
3E90
0AD0
ENDCHAR
STARTCHAR Delta
ENCODING 8710
SWIDTH 403 0
DWIDTH 4 0
BBX 7 7 -1 0
BITMAP
06A4
0FE8
0280
0340
0740
1B40
7F80
ENDCHAR
STARTCHAR minus
ENCODING 8722
SWIDTH 548 0
DWIDTH 6 0
BBX 6 2 0 2
BITMAP
AA80
FA90
ENDCHAR
STARTCHAR approxequal
ENCODING 8776
SWIDTH 323 0
DWIDTH 4 0
BBX 3 8 0 0
BITMAP
18
2C
3C
78
74
B4
74
74
ENDCHAR
STARTCHAR fi
ENCODING 64257
SWIDTH 810 0
DWIDTH 9 0
BBX 9 7 0 0
BITMAP
01A100
6FAB00
7C0740
794B00
FF8E00
A00E00
900A00
ENDCHAR
STARTCHAR fl
ENCODING 64258
SWIDTH 1012 0
DWIDTH 11 0
BBX 11 7 0 0
BITMAP
01A200
6FAB40
7C0B00
794E00
FF9D00
A02EA4
901FA8
ENDCHAR
STARTCHAR .notdef
ENCODING -1
SWIDTH 370 0
DWIDTH 4 0
BBX 1 1 0 0
BITMAP
00
ENDCHAR
ENDFONT
